<svg width="16" height="16" viewBox="0 0 16 16" fill="none" xmlns="http://www.w3.org/2000/svg">
<rect width="16" height="16" rx="1" fill="#000066"/>
<path d="M5.38228 9.96886L6.13226 12.174C6.11747 12.209 6.10268 12.2419 6.08789 12.2728C6.08789 12.2749 6.08578 12.2769 6.08367 12.279C5.94846 12.5611 5.68439 12.7237 5.35905 12.7237C5.15201 12.7237 4.96821 12.6517 4.82667 12.5137C4.72737 12.4169 4.65132 12.3099 4.60062 12.1966C4.4971 11.9743 4.36189 11.6489 4.18654 11.2063C4.01965 10.7801 3.83163 10.2859 3.62882 9.73825C3.42813 9.1947 3.22953 8.64084 3.04151 8.09317C2.8556 7.55167 2.68025 7.03899 2.52181 6.56955C2.36547 6.10629 2.24717 5.72951 2.16478 5.45155C2.09929 5.22919 2.06127 5.09329 2.04225 5.01505C2.01268 4.89975 2 4.82357 2 4.75769C2 4.55591 2.08027 4.37267 2.23027 4.22442C2.38026 4.07824 2.5704 4 2.77744 4C3.14714 4 3.426 4.20589 3.5253 4.54974C3.63304 4.92446 3.77882 5.3939 3.95627 5.94981C4.13585 6.50984 4.33443 7.10076 4.54569 7.70197C4.75906 8.31347 4.97244 8.90438 5.18158 9.46442C5.24919 9.6456 5.31256 9.8165 5.37594 9.98121C5.37594 9.97709 5.38017 9.97298 5.38017 9.96886H5.38228ZM14.0503 4.21619C13.8559 4.03706 13.6552 4 13.52 4C13.1503 4 12.8694 4.20589 12.7722 4.54974C12.6454 4.97594 12.4849 5.47831 12.2968 6.03835C12.1067 6.60249 11.906 7.18929 11.699 7.78021C11.5764 8.12611 11.456 8.46789 11.3335 8.8035L12.1194 11.1116C12.2736 10.7162 12.4426 10.2736 12.6222 9.78973C12.8229 9.25029 13.0236 8.69437 13.2179 8.1364C13.4123 7.57637 13.5982 7.03899 13.7735 6.52632C13.951 6.00952 14.0947 5.5545 14.2066 5.17154C14.2827 4.9224 14.2975 4.83181 14.2975 4.75769C14.2975 4.55179 14.213 4.36443 14.0503 4.21619ZM10.892 9.99768C10.8328 9.8515 10.7715 9.69708 10.7082 9.53648C10.4927 8.99498 10.2751 8.42671 10.0596 7.84815C9.83988 7.26136 9.63074 6.68897 9.43849 6.14953C9.24413 5.60391 9.08145 5.13447 8.95258 4.75357C8.75188 4.16677 8.40542 4.04324 8.14979 4.04324C7.78009 4.04324 7.50123 4.24913 7.40193 4.59297C7.27729 5.00476 7.11039 5.49685 6.90758 6.0507C6.70477 6.60661 6.48507 7.18518 6.25691 7.76785C6.11747 8.12611 5.97803 8.48025 5.8386 8.82615L6.60336 11.0704C6.78505 10.636 6.98575 10.1418 7.20335 9.59619C7.42728 9.02998 7.65968 8.43495 7.89417 7.82345C7.97868 7.60108 8.06318 7.38283 8.14135 7.1687C8.21106 7.36224 8.285 7.5599 8.36105 7.76373C8.59344 8.37936 8.81949 8.98057 9.03709 9.54883C9.26314 10.1418 9.47862 10.6792 9.67932 11.1486C9.88001 11.6181 10.0448 11.9784 10.1673 12.2193C10.2497 12.3922 10.3596 12.5219 10.4927 12.6064C10.6279 12.6908 10.7673 12.734 10.9046 12.734C11.23 12.734 11.4941 12.5714 11.6293 12.2893C11.6293 12.2872 11.6314 12.2831 11.6335 12.281C11.6398 12.2666 11.6462 12.2522 11.6525 12.2399L10.8877 9.99356L10.892 9.99768Z" fill="url(#paint0_linear_774_5214)"/>
<defs>
<linearGradient id="paint0_linear_774_5214" x1="2" y1="3.46304" x2="12.8519" y2="5.37475" gradientUnits="userSpaceOnUse">
<stop stop-color="#000066"/>
<stop offset="0.0671795" stop-color="#00327D"/>
<stop offset="0.287225" stop-color="#00B0B8"/>
<stop offset="0.498561" stop-color="#00E5D1"/>
<stop offset="1" stop-color="#9CE3FF"/>
</linearGradient>
</defs>
</svg>
