<svg width="193" height="63" viewBox="0 0 193 63" fill="none" xmlns="http://www.w3.org/2000/svg">
<path d="M33.8213 39.0509C36.8477 37.5979 39.246 35.554 40.9836 32.9601C43.3493 29.4057 44.5484 25.4081 44.5484 21.0657C44.5484 17.1091 43.5777 13.5384 41.6607 10.4601C39.76 7.4065 37.068 4.96032 33.6663 3.18725C30.3054 1.4388 26.3001 0.552277 21.7563 0.552277H6.37128C4.96819 0.552277 3.67114 1.06942 2.62698 2.04625C1.52571 3.08054 0.946533 4.45138 0.946533 6.01103V57.0935C0.946533 58.5464 1.50124 59.8763 2.55356 60.9352C3.60588 61.9941 4.92741 62.5523 6.37128 62.5523C7.92121 62.5523 9.28351 61.9695 10.3032 60.8695C11.2739 59.8188 11.7879 58.5136 11.7879 57.1017V41.5956H21.7156L37.9327 60.6232C37.9327 60.6232 37.9572 60.6479 37.9653 60.6561C39.0584 61.8956 40.4697 62.5523 42.0522 62.5523C43.6348 62.5523 45.0216 61.9284 46.0494 60.7464C46.9794 59.6792 47.477 58.4151 47.477 57.1017C47.477 55.698 47.012 54.4585 46.1228 53.5145L33.8295 39.0673L33.8213 39.0509ZM30.7949 27.8214C28.8371 29.7094 25.7943 30.6698 21.7482 30.6698H11.7879V11.4616H21.7482C25.4354 11.4616 28.3313 12.3727 30.5909 14.2443C32.6874 15.9763 33.6989 18.2091 33.6989 21.0657C33.6989 23.7253 32.7527 25.9335 30.7949 27.8214Z" fill="white"/>
<path d="M91.555 4.51227C87.193 1.88818 82.3015 0.552277 77.0307 0.552277C71.2858 0.552277 66.1572 1.88818 61.7952 4.51227C57.4253 7.14431 53.9641 10.8737 51.5065 15.5891C49.0805 20.2488 47.8478 25.7276 47.8478 31.8584C47.8478 37.4644 49.1042 42.641 51.5697 47.2372C54.051 51.8651 57.528 55.5865 61.9058 58.314C66.3074 61.0574 71.3964 62.4489 77.0228 62.4489C82.9969 62.4489 88.2124 61.0494 92.5191 58.2981C96.8179 55.5547 100.153 51.7776 102.428 47.0861C104.665 42.482 105.795 37.2497 105.795 31.5483C105.795 25.5288 104.507 20.1216 101.954 15.4857C99.4019 10.826 95.8933 7.13636 91.5392 4.51227H91.555ZM93.1196 42.0765C91.7051 45.1299 89.6901 47.4757 86.9638 49.249C84.285 50.9904 80.9423 51.873 77.0307 51.873C73.3246 51.873 70.1479 51.0063 67.3189 49.2251C64.4662 47.428 62.3089 45.0743 60.7363 42.0208C59.1559 38.9594 58.3577 35.5401 58.3577 31.8584C58.3577 27.6917 59.1638 24.018 60.7442 20.9168C62.3168 17.8315 64.4504 15.4857 67.2635 13.7284C70.0214 12.0028 73.3088 11.1281 77.0307 11.1281C80.4603 11.1281 83.471 11.979 86.2289 13.7204C89.0263 15.4857 91.1836 17.8394 92.8352 20.9168C94.4709 23.9703 95.3007 27.5486 95.3007 31.5563C95.3007 35.564 94.5658 38.9594 93.1196 42.0844V42.0765Z" fill="white"/>
<path d="M129.893 42.9565L135.154 58.5835C135.05 58.8316 134.946 59.065 134.843 59.2839C134.843 59.2985 134.828 59.3131 134.813 59.3277C133.865 61.3266 132.012 62.4793 129.73 62.4793C128.277 62.4793 126.988 61.9687 125.995 60.991C125.299 60.3053 124.765 59.5465 124.409 58.744C123.683 57.1682 122.735 54.8628 121.505 51.7257C120.334 48.7053 119.015 45.2035 117.592 41.3222C116.184 37.4702 114.791 33.5452 113.472 29.664C112.168 25.8265 110.938 22.1933 109.826 18.8665C108.73 15.5835 107.9 12.9134 107.322 10.9436C106.862 9.36775 106.596 8.40472 106.462 7.85026C106.255 7.03316 106.166 6.49329 106.166 6.02637C106.166 4.59645 106.729 3.29784 107.781 2.24728C108.833 1.21132 110.167 0.65686 111.62 0.65686C114.213 0.65686 116.169 2.11597 116.866 4.55268C117.622 7.20826 118.644 10.535 119.889 14.4746C121.149 18.4434 122.542 22.631 124.024 26.8916C125.521 31.2252 127.018 35.4128 128.485 39.3816C128.959 40.6656 129.404 41.8767 129.848 43.044C129.848 43.0148 129.878 42.9856 129.878 42.9565H129.893ZM190.7 2.18893C189.336 0.919505 187.928 0.65686 186.98 0.65686C184.386 0.65686 182.415 2.11597 181.733 4.55268C180.844 7.57304 179.718 11.1333 178.399 15.102C177.065 19.1 175.657 23.2585 174.205 27.4461C173.345 29.8974 172.501 32.3195 171.641 34.6979L177.154 51.0545C178.236 48.253 179.421 45.1159 180.681 41.687C182.089 37.8641 183.497 33.9246 184.86 29.9704C186.224 26.0016 187.528 22.1933 188.758 18.5601C190.003 14.8978 191.011 11.6731 191.796 8.9592C192.33 7.19367 192.434 6.55165 192.434 6.02637C192.434 4.56726 191.841 3.23949 190.7 2.18893ZM168.544 43.1607C168.129 42.1248 167.699 41.0304 167.254 39.8923C165.743 36.0549 164.216 32.0277 162.704 27.9276C161.163 23.7692 159.696 19.7128 158.347 15.89C156.984 12.0233 155.843 8.69656 154.939 5.99721C153.531 1.83874 151.1 0.963283 149.307 0.963283C146.714 0.963283 144.757 2.42239 144.061 4.8591C143.186 7.77732 142.016 11.2646 140.593 15.1896C139.17 19.1292 137.629 23.2293 136.028 27.3586C135.05 29.8974 134.072 32.4071 133.094 34.8584L138.459 50.7627C139.733 47.684 141.141 44.1821 142.668 40.3154C144.239 36.3029 145.869 32.0861 147.514 27.7525C148.107 26.1767 148.699 24.63 149.248 23.1126C149.737 24.4841 150.256 25.8849 150.789 27.3294C152.419 31.6921 154.005 35.9527 155.532 39.9799C157.117 44.1821 158.629 47.9904 160.037 51.3171C161.445 54.6439 162.601 57.1973 163.46 58.9045C164.038 60.1302 164.809 61.0494 165.743 61.6476C166.691 62.2459 167.669 62.5523 168.633 62.5523C170.915 62.5523 172.767 61.3996 173.716 59.4006C173.716 59.386 173.731 59.3568 173.745 59.3422C173.79 59.2401 173.834 59.138 173.879 59.0504L168.514 43.1315L168.544 43.1607Z" fill="url(#paint0_linear_5_766)"/>
<defs>
<linearGradient id="paint0_linear_5_766" x1="106.166" y1="-3.14841" x2="182.339" y2="10.1349" gradientUnits="userSpaceOnUse">
<stop stop-color="#000066"/>
<stop offset="0.0671795" stop-color="#00327D"/>
<stop offset="0.287225" stop-color="#00B0B8"/>
<stop offset="0.498561" stop-color="#00E5D1"/>
<stop offset="1" stop-color="#9CE3FF"/>
</linearGradient>
</defs>
</svg>
