<svg width="111" height="37" viewBox="0 0 111 37" fill="none" xmlns="http://www.w3.org/2000/svg">
<path d="M19.5528 23.1587C21.2902 22.3151 22.667 21.1283 23.6645 19.6221C25.0225 17.5583 25.7109 15.2371 25.7109 12.7157C25.7109 10.4183 25.1537 8.345 24.0531 6.55763C22.962 4.78456 21.4166 3.3642 19.4638 2.33467C17.5344 1.31945 15.235 0.804688 12.6266 0.804688H3.79439C2.98891 0.804688 2.2443 1.10496 1.64488 1.67215C1.01267 2.27271 0.680176 3.06869 0.680176 3.97429V33.6351C0.680176 34.4787 0.998622 35.2509 1.60273 35.8657C2.20684 36.4806 2.9655 36.8047 3.79439 36.8047C4.68416 36.8047 5.46623 36.4663 6.0516 35.8276C6.60888 35.2175 6.90392 34.4597 6.90392 33.6399V24.6363H12.6032L21.913 35.6846C21.913 35.6846 21.9271 35.6989 21.9317 35.7037C22.5593 36.4234 23.3694 36.8047 24.2779 36.8047C25.1864 36.8047 25.9826 36.4424 26.5726 35.7561C27.1065 35.1365 27.3921 34.4025 27.3921 33.6399C27.3921 32.8248 27.1252 32.1051 26.6148 31.557L19.5574 23.1683L19.5528 23.1587ZM17.8154 16.6384C16.6914 17.7346 14.9447 18.2923 12.6219 18.2923H6.90392V7.13912H12.6219C14.7386 7.13912 16.4011 7.66818 17.6983 8.7549C18.9018 9.7606 19.4825 11.057 19.4825 12.7157C19.4825 14.26 18.9393 15.5421 17.8154 16.6384Z" fill="#000066"/>
<path d="M52.6962 3.10404C50.1921 1.58038 47.384 0.804688 44.3582 0.804688C41.0602 0.804688 38.116 1.58038 35.6119 3.10404C33.1032 4.63232 31.1162 6.79776 29.7054 9.53574C28.3127 12.2414 27.605 15.4226 27.605 18.9825C27.605 22.2376 28.3263 25.2433 29.7417 27.912C31.1661 30.5992 33.1622 32.7601 35.6754 34.3438C38.2022 35.9367 41.1237 36.7447 44.3536 36.7447C47.7832 36.7447 50.7773 35.932 53.2497 34.3345C55.7175 32.7416 57.6319 30.5484 58.9384 27.8243C60.2222 25.151 60.8709 22.1129 60.8709 18.8024C60.8709 15.3072 60.1315 12.1675 58.6662 9.47572C57.2009 6.77007 55.1867 4.6277 52.6871 3.10404H52.6962ZM53.5944 24.9155C52.7824 26.6885 51.6256 28.0506 50.0605 29.0802C48.5227 30.0913 46.6037 30.6038 44.3582 30.6038C42.2306 30.6038 40.4069 30.1006 38.7828 29.0663C37.1452 28.0229 35.9067 26.6562 35.004 24.8832C34.0967 23.1056 33.6385 21.1202 33.6385 18.9825C33.6385 16.5631 34.1012 14.4299 35.0085 12.6292C35.9113 10.8378 37.1361 9.47572 38.7511 8.45533C40.3343 7.4534 42.2215 6.94551 44.3582 6.94551C46.327 6.94551 48.0554 7.43955 49.6386 8.45071C51.2445 9.47572 52.483 10.8424 53.4311 12.6292C54.3702 14.4022 54.8465 16.4799 54.8465 18.807C54.8465 21.134 54.4246 23.1056 53.5944 24.9201V24.9155Z" fill="#000066"/>
<path d="M74.4922 25.3657L77.5124 34.4395C77.4529 34.5835 77.3933 34.7191 77.3338 34.8462C77.3338 34.8546 77.3253 34.8631 77.3168 34.8716C76.7723 36.0323 75.7088 36.7016 74.3986 36.7016C73.5648 36.7016 72.8246 36.4051 72.2546 35.8374C71.8547 35.4392 71.5484 34.9987 71.3443 34.5327C70.9274 33.6177 70.3828 32.2791 69.6767 30.4576C69.0046 28.7038 68.2474 26.6705 67.4307 24.4168C66.6224 22.1802 65.8227 19.9011 65.0655 17.6475C64.3168 15.4193 63.6106 13.3097 62.9725 11.378C62.3429 9.47179 61.8665 7.92138 61.5347 6.77763C61.2709 5.86262 61.1178 5.30345 61.0413 4.9815C60.9222 4.50705 60.8711 4.19358 60.8711 3.92247C60.8711 3.09219 61.1944 2.33816 61.7984 1.72816C62.4025 1.12663 63.1682 0.804688 64.002 0.804688C65.4908 0.804688 66.6139 1.65191 67.0137 3.06678C67.4476 4.60873 68.0347 6.5404 68.7494 8.82791C69.4725 11.1324 70.2723 13.5639 71.123 16.0378C71.9823 18.554 72.8416 20.9856 73.6839 23.29C73.9562 24.0356 74.2114 24.7388 74.4666 25.4166C74.4666 25.3996 74.4837 25.3827 74.4837 25.3657H74.4922ZM109.4 1.69428C108.617 0.957191 107.809 0.804688 107.264 0.804688C105.775 0.804688 104.644 1.65191 104.253 3.06678C103.742 4.82053 103.096 6.88776 102.338 9.19221C101.573 11.5136 100.764 13.9282 99.9306 16.3597C99.4371 17.7831 98.9522 19.1895 98.4588 20.5704L101.624 30.0678C102.245 28.4412 102.925 26.6196 103.649 24.6286C104.457 22.4089 105.265 20.1214 106.048 17.8254C106.83 15.521 107.579 13.3097 108.285 11.2001C109 9.07361 109.579 7.20124 110.029 5.6254C110.336 4.60026 110.395 4.22747 110.395 3.92247C110.395 3.07524 110.055 2.30428 109.4 1.69428ZM96.6806 25.4844C96.4424 24.8828 96.1957 24.2474 95.9404 23.5866C95.0726 21.3584 94.1964 19.02 93.3286 16.6393C92.4437 14.2247 91.6015 11.8694 90.8272 9.64972C90.0445 7.40457 89.3894 5.4729 88.8704 3.90553C88.0622 1.49094 86.6669 0.98261 85.6374 0.98261C84.1486 0.98261 83.0255 1.82983 82.6257 3.2447C82.1237 4.93915 81.4516 6.96402 80.6348 9.24305C79.8181 11.5306 78.9333 13.9113 78.0144 16.3089C77.4529 17.7831 76.8914 19.2403 76.3298 20.6636L79.4097 29.8984C80.1414 28.1107 80.9496 26.0774 81.8259 23.8323C82.7278 21.5024 83.6636 19.0539 84.608 16.5377C84.9483 15.6227 85.2886 14.7246 85.6034 13.8435C85.8842 14.6399 86.1819 15.4532 86.4882 16.292C87.4241 18.8252 88.3344 21.2991 89.2107 23.6374C90.1211 26.0774 90.9889 28.2887 91.7971 30.2203C92.6053 32.152 93.269 33.6347 93.7624 34.6259C94.0942 35.3376 94.5367 35.8713 95.0727 36.2187C95.6172 36.5661 96.1787 36.744 96.7317 36.744C98.0419 36.744 99.1054 36.0747 99.6499 34.914C99.6499 34.9055 99.6584 34.8885 99.6669 34.8801C99.6924 34.8208 99.7179 34.7615 99.7435 34.7106L96.6636 25.4674L96.6806 25.4844Z" fill="url(#paint0_linear_709_1947)"/>
<defs>
<linearGradient id="paint0_linear_709_1947" x1="60.8711" y1="-1.40482" x2="104.629" y2="6.13951" gradientUnits="userSpaceOnUse">
<stop stop-color="#000066"/>
<stop offset="0.0671795" stop-color="#00327D"/>
<stop offset="0.287225" stop-color="#00B0B8"/>
<stop offset="0.498561" stop-color="#00E5D1"/>
<stop offset="1" stop-color="#9CE3FF"/>
</linearGradient>
</defs>
</svg>
