<svg width="193" height="59" viewBox="0 0 193 59" fill="none" xmlns="http://www.w3.org/2000/svg">
<path d="M11.3537 32.0344H7.06452V46.6957H0V0H7.06452V25.618H11.401L20.6811 12.3282H29.0623L17.4169 28.8262L30.3002 46.6957H21.6587L11.3537 32.0344Z" fill="#006252"/>
<path d="M48.7978 47.5395C38.2799 47.5395 30.4111 39.8462 30.4111 29.5123C30.4111 19.1784 38.2956 11.493 48.7978 11.493C59.3 11.493 67.1844 19.1626 67.1844 29.5123C67.1844 39.8619 59.3 47.5395 48.7978 47.5395ZM59.9859 29.5123C59.9859 22.9304 55.3104 18.2404 48.7978 18.2404C42.2852 18.2404 37.6097 22.9698 37.6097 29.5123C37.6097 36.0547 42.2931 40.7921 48.7978 40.7921C55.3025 40.7921 59.9859 36.0626 59.9859 29.5123Z" fill="#006252"/>
<path d="M104.532 12.3047L88.7632 47.3029C84.8841 55.9736 81.4622 59.0004 74.4528 59.0004H70.96V52.6393H73.9088C78.4582 52.6393 79.8537 51.3071 82.3689 45.8052L83.1573 44.2287L68.1768 12.3441H75.8642L86.7921 36.3147L97.042 12.3441L104.532 12.3047Z" fill="#006252"/>
<path d="M156.373 12.3281L144.869 46.6957H139.137L130.275 25.7677L121.46 46.6957H115.728L104.209 12.3281H111.502L119.261 35.4868L129.132 12.6986H131.411L141.416 35.6602L149.3 12.3281H156.373Z" fill="#006252"/>
<path d="M192.698 29.5992C192.69 30.3736 192.642 31.1471 192.556 31.9167H164.645C165.528 37.4896 169.541 40.9106 175.17 40.9106C177.023 40.979 178.859 40.5482 180.488 39.6635C182.116 38.7787 183.477 37.4725 184.427 35.8816H191.83C190.626 39.3317 188.366 42.3149 185.369 44.4077C182.373 46.5004 178.793 47.5962 175.139 47.5397C165.086 47.5397 157.478 39.7833 157.478 29.5125C157.478 19.2416 165.07 11.4932 175.139 11.4932C185.665 11.4932 192.674 19.5963 192.674 29.6228L192.698 29.5992ZM175.17 17.8702C169.856 17.8702 165.985 21.0783 164.826 26.1782H185.617C184.348 20.9521 180.414 17.8702 175.17 17.8702Z" fill="#006252"/>
<path d="M61.5322 20.9521L79.6508 30.4978M159.727 29.276L145.227 36.6777" stroke="#006252" stroke-width="6" stroke-miterlimit="10"/>
</svg>
